<mxfile host="app.diagrams.net" agent="Mozilla/5.0 (Windows NT 10.0; Win64; x64) AppleWebKit/537.36 (KHTML, like Gecko) Chrome/137.0.0.0 Safari/537.36" version="27.1.6">
  <diagram name="Страница — 1" id="w-xnqGOxg4vw6AwV3Poq">
    <mxGraphModel grid="1" page="1" gridSize="10" guides="1" tooltips="1" connect="1" arrows="1" fold="1" pageScale="1" pageWidth="827" pageHeight="1169" math="0" shadow="0">
      <root>
        <mxCell id="0" />
        <mxCell id="1" parent="0" />
        <mxCell id="-WTdRZWmwW-Z1wG2WvBM-6" style="edgeStyle=orthogonalEdgeStyle;rounded=0;orthogonalLoop=1;jettySize=auto;html=1;exitX=0.5;exitY=1;exitDx=0;exitDy=0;entryX=0.75;entryY=0;entryDx=0;entryDy=0;" edge="1" parent="1" source="-WTdRZWmwW-Z1wG2WvBM-1" target="-WTdRZWmwW-Z1wG2WvBM-4">
          <mxGeometry relative="1" as="geometry" />
        </mxCell>
        <mxCell id="-WTdRZWmwW-Z1wG2WvBM-50" style="edgeStyle=orthogonalEdgeStyle;rounded=0;orthogonalLoop=1;jettySize=auto;html=1;exitX=0.5;exitY=1;exitDx=0;exitDy=0;entryX=0.25;entryY=0;entryDx=0;entryDy=0;" edge="1" parent="1" source="-WTdRZWmwW-Z1wG2WvBM-1" target="-WTdRZWmwW-Z1wG2WvBM-49">
          <mxGeometry relative="1" as="geometry">
            <mxPoint x="310" y="490" as="targetPoint" />
            <Array as="points">
              <mxPoint x="570" y="700" />
              <mxPoint x="272" y="700" />
            </Array>
          </mxGeometry>
        </mxCell>
        <mxCell id="-WTdRZWmwW-Z1wG2WvBM-1" value="ALU" style="verticalLabelPosition=middle;verticalAlign=middle;html=1;shape=trapezoid;perimeter=trapezoidPerimeter;whiteSpace=wrap;size=0.23;arcSize=10;flipV=1;labelPosition=center;align=center;" vertex="1" parent="1">
          <mxGeometry x="510" y="600" width="120" height="60" as="geometry" />
        </mxCell>
        <mxCell id="-WTdRZWmwW-Z1wG2WvBM-22" style="edgeStyle=orthogonalEdgeStyle;rounded=0;orthogonalLoop=1;jettySize=auto;html=1;exitX=0.5;exitY=1;exitDx=0;exitDy=0;entryX=1;entryY=0.5;entryDx=0;entryDy=0;" edge="1" parent="1" source="-WTdRZWmwW-Z1wG2WvBM-4" target="-WTdRZWmwW-Z1wG2WvBM-21">
          <mxGeometry relative="1" as="geometry" />
        </mxCell>
        <mxCell id="-WTdRZWmwW-Z1wG2WvBM-4" value="" style="verticalLabelPosition=middle;verticalAlign=middle;html=1;shape=trapezoid;perimeter=trapezoidPerimeter;whiteSpace=wrap;size=0.23;arcSize=10;flipV=1;labelPosition=center;align=center;rotation=-180;" vertex="1" parent="1">
          <mxGeometry x="700" y="620" width="100" height="60" as="geometry" />
        </mxCell>
        <mxCell id="-WTdRZWmwW-Z1wG2WvBM-7" value="N" style="rounded=0;whiteSpace=wrap;html=1;" vertex="1" parent="1">
          <mxGeometry x="538" y="660" width="20" height="20" as="geometry" />
        </mxCell>
        <mxCell id="-WTdRZWmwW-Z1wG2WvBM-8" value="Z" style="rounded=0;whiteSpace=wrap;html=1;" vertex="1" parent="1">
          <mxGeometry x="582" y="660" width="20" height="20" as="geometry" />
        </mxCell>
        <mxCell id="-WTdRZWmwW-Z1wG2WvBM-9" value="" style="rounded=0;whiteSpace=wrap;html=1;dashed=1;" vertex="1" parent="1">
          <mxGeometry x="830" y="480" width="170" height="200" as="geometry" />
        </mxCell>
        <mxCell id="-WTdRZWmwW-Z1wG2WvBM-10" value="Memory Mapped IO" style="text;html=1;align=left;verticalAlign=middle;whiteSpace=wrap;rounded=0;" vertex="1" parent="1">
          <mxGeometry x="840" y="480" width="190" height="30" as="geometry" />
        </mxCell>
        <mxCell id="-WTdRZWmwW-Z1wG2WvBM-11" value="MUX" style="text;html=1;align=center;verticalAlign=middle;whiteSpace=wrap;rounded=0;" vertex="1" parent="1">
          <mxGeometry x="720" y="635" width="60" height="30" as="geometry" />
        </mxCell>
        <mxCell id="-WTdRZWmwW-Z1wG2WvBM-17" style="edgeStyle=orthogonalEdgeStyle;rounded=0;orthogonalLoop=1;jettySize=auto;html=1;entryX=0.25;entryY=0;entryDx=0;entryDy=0;" edge="1" parent="1" source="-WTdRZWmwW-Z1wG2WvBM-12" target="-WTdRZWmwW-Z1wG2WvBM-4">
          <mxGeometry relative="1" as="geometry">
            <Array as="points">
              <mxPoint x="875" y="700" />
              <mxPoint x="775" y="700" />
            </Array>
          </mxGeometry>
        </mxCell>
        <mxCell id="-WTdRZWmwW-Z1wG2WvBM-12" value="Memory" style="whiteSpace=wrap;html=1;aspect=fixed;" vertex="1" parent="1">
          <mxGeometry x="850" y="610" width="50" height="50" as="geometry" />
        </mxCell>
        <mxCell id="-WTdRZWmwW-Z1wG2WvBM-13" value="Output" style="whiteSpace=wrap;html=1;aspect=fixed;" vertex="1" parent="1">
          <mxGeometry x="850" y="520" width="50" height="50" as="geometry" />
        </mxCell>
        <mxCell id="-WTdRZWmwW-Z1wG2WvBM-18" style="edgeStyle=orthogonalEdgeStyle;rounded=0;orthogonalLoop=1;jettySize=auto;html=1;entryX=0.5;entryY=0;entryDx=0;entryDy=0;" edge="1" parent="1" source="-WTdRZWmwW-Z1wG2WvBM-14" target="-WTdRZWmwW-Z1wG2WvBM-15">
          <mxGeometry relative="1" as="geometry" />
        </mxCell>
        <mxCell id="-WTdRZWmwW-Z1wG2WvBM-19" style="edgeStyle=orthogonalEdgeStyle;rounded=0;orthogonalLoop=1;jettySize=auto;html=1;exitX=0;exitY=0.5;exitDx=0;exitDy=0;" edge="1" parent="1" source="-WTdRZWmwW-Z1wG2WvBM-14" target="-WTdRZWmwW-Z1wG2WvBM-13">
          <mxGeometry relative="1" as="geometry" />
        </mxCell>
        <mxCell id="-WTdRZWmwW-Z1wG2WvBM-20" style="edgeStyle=orthogonalEdgeStyle;rounded=0;orthogonalLoop=1;jettySize=auto;html=1;exitX=0.25;exitY=1;exitDx=0;exitDy=0;" edge="1" parent="1" source="-WTdRZWmwW-Z1wG2WvBM-14" target="-WTdRZWmwW-Z1wG2WvBM-12">
          <mxGeometry relative="1" as="geometry" />
        </mxCell>
        <mxCell id="-WTdRZWmwW-Z1wG2WvBM-14" value="Decoder" style="whiteSpace=wrap;html=1;aspect=fixed;" vertex="1" parent="1">
          <mxGeometry x="930" y="520" width="50" height="50" as="geometry" />
        </mxCell>
        <mxCell id="-WTdRZWmwW-Z1wG2WvBM-16" style="edgeStyle=orthogonalEdgeStyle;rounded=0;orthogonalLoop=1;jettySize=auto;html=1;entryX=0.25;entryY=0;entryDx=0;entryDy=0;exitX=0.5;exitY=1;exitDx=0;exitDy=0;" edge="1" parent="1" source="-WTdRZWmwW-Z1wG2WvBM-15" target="-WTdRZWmwW-Z1wG2WvBM-4">
          <mxGeometry relative="1" as="geometry">
            <Array as="points">
              <mxPoint x="955" y="700" />
              <mxPoint x="775" y="700" />
            </Array>
          </mxGeometry>
        </mxCell>
        <mxCell id="-WTdRZWmwW-Z1wG2WvBM-15" value="Input" style="whiteSpace=wrap;html=1;aspect=fixed;" vertex="1" parent="1">
          <mxGeometry x="930" y="610" width="50" height="50" as="geometry" />
        </mxCell>
        <mxCell id="-WTdRZWmwW-Z1wG2WvBM-27" style="edgeStyle=orthogonalEdgeStyle;rounded=0;orthogonalLoop=1;jettySize=auto;html=1;entryX=0.75;entryY=0;entryDx=0;entryDy=0;" edge="1" parent="1" source="-WTdRZWmwW-Z1wG2WvBM-21" target="-WTdRZWmwW-Z1wG2WvBM-24">
          <mxGeometry relative="1" as="geometry" />
        </mxCell>
        <mxCell id="-WTdRZWmwW-Z1wG2WvBM-28" style="edgeStyle=orthogonalEdgeStyle;rounded=0;orthogonalLoop=1;jettySize=auto;html=1;exitX=0.5;exitY=1;exitDx=0;exitDy=0;entryX=0.25;entryY=0;entryDx=0;entryDy=0;" edge="1" parent="1" source="-WTdRZWmwW-Z1wG2WvBM-21" target="-WTdRZWmwW-Z1wG2WvBM-23">
          <mxGeometry relative="1" as="geometry" />
        </mxCell>
        <mxCell id="-WTdRZWmwW-Z1wG2WvBM-47" style="edgeStyle=orthogonalEdgeStyle;rounded=0;orthogonalLoop=1;jettySize=auto;html=1;exitX=0.5;exitY=1;exitDx=0;exitDy=0;entryX=0.5;entryY=0;entryDx=0;entryDy=0;" edge="1" parent="1" source="-WTdRZWmwW-Z1wG2WvBM-21" target="-WTdRZWmwW-Z1wG2WvBM-14">
          <mxGeometry relative="1" as="geometry">
            <Array as="points">
              <mxPoint x="570" y="430" />
              <mxPoint x="955" y="430" />
            </Array>
          </mxGeometry>
        </mxCell>
        <mxCell id="BLbvSoFg7Nqtmbzif43e-7" style="edgeStyle=orthogonalEdgeStyle;rounded=0;orthogonalLoop=1;jettySize=auto;html=1;entryX=0.25;entryY=0;entryDx=0;entryDy=0;exitX=0.5;exitY=1;exitDx=0;exitDy=0;" edge="1" parent="1" source="-WTdRZWmwW-Z1wG2WvBM-21" target="BLbvSoFg7Nqtmbzif43e-6">
          <mxGeometry relative="1" as="geometry">
            <Array as="points">
              <mxPoint x="570" y="430" />
              <mxPoint x="340" y="430" />
              <mxPoint x="340" y="400" />
              <mxPoint x="130" y="400" />
              <mxPoint x="130" y="95" />
            </Array>
          </mxGeometry>
        </mxCell>
        <mxCell id="BLbvSoFg7Nqtmbzif43e-8" style="edgeStyle=orthogonalEdgeStyle;rounded=0;orthogonalLoop=1;jettySize=auto;html=1;exitX=0.5;exitY=1;exitDx=0;exitDy=0;entryX=0;entryY=0.5;entryDx=0;entryDy=0;" edge="1" parent="1" source="-WTdRZWmwW-Z1wG2WvBM-21" target="BLbvSoFg7Nqtmbzif43e-13">
          <mxGeometry relative="1" as="geometry">
            <Array as="points">
              <mxPoint x="570" y="430" />
              <mxPoint x="340" y="430" />
              <mxPoint x="340" y="400" />
              <mxPoint x="130" y="400" />
              <mxPoint x="130" y="45" />
            </Array>
          </mxGeometry>
        </mxCell>
        <mxCell id="-WTdRZWmwW-Z1wG2WvBM-21" value="Register file" style="rounded=0;whiteSpace=wrap;html=1;" vertex="1" parent="1">
          <mxGeometry x="510" y="340" width="120" height="60" as="geometry" />
        </mxCell>
        <mxCell id="-WTdRZWmwW-Z1wG2WvBM-26" style="edgeStyle=orthogonalEdgeStyle;rounded=0;orthogonalLoop=1;jettySize=auto;html=1;exitX=0.5;exitY=1;exitDx=0;exitDy=0;entryX=0.75;entryY=0;entryDx=0;entryDy=0;" edge="1" parent="1" source="-WTdRZWmwW-Z1wG2WvBM-23" target="-WTdRZWmwW-Z1wG2WvBM-1">
          <mxGeometry relative="1" as="geometry" />
        </mxCell>
        <mxCell id="-WTdRZWmwW-Z1wG2WvBM-23" value="MUX" style="verticalLabelPosition=middle;verticalAlign=middle;html=1;shape=trapezoid;perimeter=trapezoidPerimeter;whiteSpace=wrap;size=0.23;arcSize=10;flipV=1;labelPosition=center;align=center;" vertex="1" parent="1">
          <mxGeometry x="602" y="460" width="120" height="60" as="geometry" />
        </mxCell>
        <mxCell id="-WTdRZWmwW-Z1wG2WvBM-25" style="edgeStyle=orthogonalEdgeStyle;rounded=0;orthogonalLoop=1;jettySize=auto;html=1;exitX=0.5;exitY=1;exitDx=0;exitDy=0;entryX=0.25;entryY=0;entryDx=0;entryDy=0;" edge="1" parent="1" source="-WTdRZWmwW-Z1wG2WvBM-24" target="-WTdRZWmwW-Z1wG2WvBM-1">
          <mxGeometry relative="1" as="geometry" />
        </mxCell>
        <mxCell id="-WTdRZWmwW-Z1wG2WvBM-24" value="MUX" style="verticalLabelPosition=middle;verticalAlign=middle;html=1;shape=trapezoid;perimeter=trapezoidPerimeter;whiteSpace=wrap;size=0.23;arcSize=10;flipV=1;labelPosition=center;align=center;" vertex="1" parent="1">
          <mxGeometry x="418" y="460" width="120" height="60" as="geometry" />
        </mxCell>
        <mxCell id="-WTdRZWmwW-Z1wG2WvBM-30" style="edgeStyle=orthogonalEdgeStyle;rounded=0;orthogonalLoop=1;jettySize=auto;html=1;entryX=0;entryY=0.5;entryDx=0;entryDy=0;dashed=1;exitX=0.972;exitY=0.488;exitDx=0;exitDy=0;exitPerimeter=0;" edge="1" parent="1" source="-WTdRZWmwW-Z1wG2WvBM-29" target="-WTdRZWmwW-Z1wG2WvBM-1">
          <mxGeometry relative="1" as="geometry" />
        </mxCell>
        <mxCell id="-WTdRZWmwW-Z1wG2WvBM-29" value="ALU opcode" style="text;html=1;align=center;verticalAlign=middle;whiteSpace=wrap;rounded=0;fontSize=8;" vertex="1" parent="1">
          <mxGeometry x="450" y="615" width="50" height="30" as="geometry" />
        </mxCell>
        <mxCell id="-WTdRZWmwW-Z1wG2WvBM-31" value="rs2" style="text;html=1;align=center;verticalAlign=middle;whiteSpace=wrap;rounded=0;fontSize=8;" vertex="1" parent="1">
          <mxGeometry x="510" y="410" width="60" height="30" as="geometry" />
        </mxCell>
        <mxCell id="-WTdRZWmwW-Z1wG2WvBM-32" value="rs1" style="text;html=1;align=center;verticalAlign=middle;whiteSpace=wrap;rounded=0;fontSize=8;" vertex="1" parent="1">
          <mxGeometry x="570" y="410" width="60" height="30" as="geometry" />
        </mxCell>
        <mxCell id="-WTdRZWmwW-Z1wG2WvBM-35" style="edgeStyle=orthogonalEdgeStyle;rounded=0;orthogonalLoop=1;jettySize=auto;html=1;entryX=0.5;entryY=0;entryDx=0;entryDy=0;exitX=0.416;exitY=1.006;exitDx=0;exitDy=0;exitPerimeter=0;" edge="1" parent="1" source="-WTdRZWmwW-Z1wG2WvBM-34" target="-WTdRZWmwW-Z1wG2WvBM-24">
          <mxGeometry relative="1" as="geometry">
            <Array as="points">
              <mxPoint x="430" y="400" />
              <mxPoint x="478" y="400" />
            </Array>
          </mxGeometry>
        </mxCell>
        <mxCell id="-WTdRZWmwW-Z1wG2WvBM-34" value="&lt;p&gt;Sign Extension&lt;/p&gt;" style="shape=parallelogram;html=1;strokeWidth=1;perimeter=parallelogramPerimeter;whiteSpace=wrap;rounded=1;arcSize=0;size=0.1875;spacing=2;labelBackgroundColor=none;" vertex="1" parent="1">
          <mxGeometry x="380" y="350" width="120" height="40" as="geometry" />
        </mxCell>
        <mxCell id="-WTdRZWmwW-Z1wG2WvBM-43" value="op-2" style="text;html=1;align=center;verticalAlign=middle;whiteSpace=wrap;rounded=0;fontSize=8;" vertex="1" parent="1">
          <mxGeometry x="390" y="475" width="20" height="30" as="geometry" />
        </mxCell>
        <mxCell id="-WTdRZWmwW-Z1wG2WvBM-44" style="edgeStyle=orthogonalEdgeStyle;rounded=0;orthogonalLoop=1;jettySize=auto;html=1;entryX=0;entryY=0.5;entryDx=0;entryDy=0;dashed=1;exitX=0.96;exitY=0.516;exitDx=0;exitDy=0;exitPerimeter=0;" edge="1" parent="1" source="-WTdRZWmwW-Z1wG2WvBM-43" target="-WTdRZWmwW-Z1wG2WvBM-24">
          <mxGeometry relative="1" as="geometry">
            <mxPoint x="434" y="490" as="targetPoint" />
          </mxGeometry>
        </mxCell>
        <mxCell id="-WTdRZWmwW-Z1wG2WvBM-56" style="edgeStyle=orthogonalEdgeStyle;rounded=0;orthogonalLoop=1;jettySize=auto;html=1;exitX=0.5;exitY=1;exitDx=0;exitDy=0;entryX=0.5;entryY=1;entryDx=0;entryDy=0;" edge="1" parent="1" source="-WTdRZWmwW-Z1wG2WvBM-49" target="-WTdRZWmwW-Z1wG2WvBM-51">
          <mxGeometry relative="1" as="geometry" />
        </mxCell>
        <mxCell id="-WTdRZWmwW-Z1wG2WvBM-49" value="" style="verticalLabelPosition=middle;verticalAlign=middle;html=1;shape=trapezoid;perimeter=trapezoidPerimeter;whiteSpace=wrap;size=0.23;arcSize=10;flipV=1;labelPosition=center;align=center;rotation=-180;" vertex="1" parent="1">
          <mxGeometry x="197" y="415" width="100" height="60" as="geometry" />
        </mxCell>
        <mxCell id="-WTdRZWmwW-Z1wG2WvBM-48" value="MUX" style="text;html=1;align=center;verticalAlign=middle;whiteSpace=wrap;rounded=0;" vertex="1" parent="1">
          <mxGeometry x="217" y="430" width="60" height="30" as="geometry" />
        </mxCell>
        <mxCell id="-WTdRZWmwW-Z1wG2WvBM-61" style="edgeStyle=orthogonalEdgeStyle;rounded=0;orthogonalLoop=1;jettySize=auto;html=1;exitX=0.5;exitY=0;exitDx=0;exitDy=0;entryX=0;entryY=0.5;entryDx=0;entryDy=0;" edge="1" parent="1" source="-WTdRZWmwW-Z1wG2WvBM-51" target="-WTdRZWmwW-Z1wG2WvBM-57">
          <mxGeometry relative="1" as="geometry" />
        </mxCell>
        <mxCell id="BLbvSoFg7Nqtmbzif43e-25" style="edgeStyle=orthogonalEdgeStyle;rounded=0;orthogonalLoop=1;jettySize=auto;html=1;exitX=0.25;exitY=0;exitDx=0;exitDy=0;entryX=0.75;entryY=0;entryDx=0;entryDy=0;" edge="1" parent="1" source="-WTdRZWmwW-Z1wG2WvBM-51" target="-WTdRZWmwW-Z1wG2WvBM-64">
          <mxGeometry relative="1" as="geometry">
            <Array as="points">
              <mxPoint x="235" y="140" />
              <mxPoint x="600" y="140" />
            </Array>
          </mxGeometry>
        </mxCell>
        <mxCell id="BLbvSoFg7Nqtmbzif43e-48" style="edgeStyle=orthogonalEdgeStyle;rounded=0;orthogonalLoop=1;jettySize=auto;html=1;entryX=0.5;entryY=0;entryDx=0;entryDy=0;" edge="1" parent="1" source="-WTdRZWmwW-Z1wG2WvBM-51" target="BLbvSoFg7Nqtmbzif43e-46">
          <mxGeometry relative="1" as="geometry" />
        </mxCell>
        <mxCell id="-WTdRZWmwW-Z1wG2WvBM-51" value="PC" style="whiteSpace=wrap;html=1;aspect=fixed;" vertex="1" parent="1">
          <mxGeometry x="222" y="270" width="50" height="50" as="geometry" />
        </mxCell>
        <mxCell id="-WTdRZWmwW-Z1wG2WvBM-63" style="edgeStyle=orthogonalEdgeStyle;rounded=0;orthogonalLoop=1;jettySize=auto;html=1;entryX=0;entryY=0.5;entryDx=0;entryDy=0;" edge="1" parent="1" source="-WTdRZWmwW-Z1wG2WvBM-57" target="-WTdRZWmwW-Z1wG2WvBM-62">
          <mxGeometry relative="1" as="geometry" />
        </mxCell>
        <mxCell id="-WTdRZWmwW-Z1wG2WvBM-57" value="I-Mem" style="whiteSpace=wrap;html=1;aspect=fixed;" vertex="1" parent="1">
          <mxGeometry x="320" y="180" width="50" height="50" as="geometry" />
        </mxCell>
        <mxCell id="BLbvSoFg7Nqtmbzif43e-35" style="edgeStyle=orthogonalEdgeStyle;rounded=0;orthogonalLoop=1;jettySize=auto;html=1;entryX=0;entryY=0.25;entryDx=0;entryDy=0;exitX=1;exitY=0.25;exitDx=0;exitDy=0;" edge="1" parent="1" source="-WTdRZWmwW-Z1wG2WvBM-62" target="-WTdRZWmwW-Z1wG2WvBM-64">
          <mxGeometry relative="1" as="geometry" />
        </mxCell>
        <mxCell id="BLbvSoFg7Nqtmbzif43e-36" style="edgeStyle=orthogonalEdgeStyle;rounded=0;orthogonalLoop=1;jettySize=auto;html=1;entryX=0;entryY=0.75;entryDx=0;entryDy=0;exitX=1;exitY=0.75;exitDx=0;exitDy=0;" edge="1" parent="1" source="-WTdRZWmwW-Z1wG2WvBM-62" target="-WTdRZWmwW-Z1wG2WvBM-64">
          <mxGeometry relative="1" as="geometry" />
        </mxCell>
        <mxCell id="-WTdRZWmwW-Z1wG2WvBM-62" value="Instruction&lt;div&gt;Decoder&lt;/div&gt;" style="rounded=0;whiteSpace=wrap;html=1;" vertex="1" parent="1">
          <mxGeometry x="414" y="180" width="66" height="50" as="geometry" />
        </mxCell>
        <mxCell id="-WTdRZWmwW-Z1wG2WvBM-65" style="edgeStyle=orthogonalEdgeStyle;rounded=0;orthogonalLoop=1;jettySize=auto;html=1;entryX=0.75;entryY=0;entryDx=0;entryDy=0;exitX=0.75;exitY=1;exitDx=0;exitDy=0;" edge="1" parent="1" source="-WTdRZWmwW-Z1wG2WvBM-64" target="-WTdRZWmwW-Z1wG2WvBM-21">
          <mxGeometry relative="1" as="geometry" />
        </mxCell>
        <mxCell id="-WTdRZWmwW-Z1wG2WvBM-66" style="edgeStyle=orthogonalEdgeStyle;rounded=0;orthogonalLoop=1;jettySize=auto;html=1;entryX=0.5;entryY=0;entryDx=0;entryDy=0;" edge="1" parent="1" source="-WTdRZWmwW-Z1wG2WvBM-64" target="-WTdRZWmwW-Z1wG2WvBM-21">
          <mxGeometry relative="1" as="geometry" />
        </mxCell>
        <mxCell id="-WTdRZWmwW-Z1wG2WvBM-67" style="edgeStyle=orthogonalEdgeStyle;rounded=0;orthogonalLoop=1;jettySize=auto;html=1;entryX=0.25;entryY=0;entryDx=0;entryDy=0;exitX=0.25;exitY=1;exitDx=0;exitDy=0;" edge="1" parent="1" source="-WTdRZWmwW-Z1wG2WvBM-64" target="-WTdRZWmwW-Z1wG2WvBM-21">
          <mxGeometry relative="1" as="geometry" />
        </mxCell>
        <mxCell id="-WTdRZWmwW-Z1wG2WvBM-69" style="edgeStyle=orthogonalEdgeStyle;rounded=0;orthogonalLoop=1;jettySize=auto;html=1;exitX=1;exitY=0.5;exitDx=0;exitDy=0;entryX=0.75;entryY=0;entryDx=0;entryDy=0;" edge="1" parent="1" source="-WTdRZWmwW-Z1wG2WvBM-64" target="-WTdRZWmwW-Z1wG2WvBM-23">
          <mxGeometry relative="1" as="geometry" />
        </mxCell>
        <mxCell id="-WTdRZWmwW-Z1wG2WvBM-72" style="edgeStyle=orthogonalEdgeStyle;rounded=0;orthogonalLoop=1;jettySize=auto;html=1;entryX=0.5;entryY=0;entryDx=0;entryDy=0;exitX=0.096;exitY=1.006;exitDx=0;exitDy=0;exitPerimeter=0;" edge="1" parent="1" source="-WTdRZWmwW-Z1wG2WvBM-64" target="-WTdRZWmwW-Z1wG2WvBM-34">
          <mxGeometry relative="1" as="geometry" />
        </mxCell>
        <mxCell id="BLbvSoFg7Nqtmbzif43e-2" style="edgeStyle=orthogonalEdgeStyle;rounded=0;orthogonalLoop=1;jettySize=auto;html=1;entryX=0.75;entryY=0;entryDx=0;entryDy=0;exitX=0.097;exitY=0.998;exitDx=0;exitDy=0;exitPerimeter=0;" edge="1" parent="1" source="-WTdRZWmwW-Z1wG2WvBM-64" target="BLbvSoFg7Nqtmbzif43e-1">
          <mxGeometry relative="1" as="geometry">
            <Array as="points">
              <mxPoint x="522" y="290" />
              <mxPoint x="378" y="290" />
            </Array>
          </mxGeometry>
        </mxCell>
        <mxCell id="BLbvSoFg7Nqtmbzif43e-19" style="edgeStyle=orthogonalEdgeStyle;rounded=0;orthogonalLoop=1;jettySize=auto;html=1;entryX=0.5;entryY=0;entryDx=0;entryDy=0;exitX=0.5;exitY=0;exitDx=0;exitDy=0;" edge="1" parent="1" source="-WTdRZWmwW-Z1wG2WvBM-64" target="-WTdRZWmwW-Z1wG2WvBM-62">
          <mxGeometry relative="1" as="geometry" />
        </mxCell>
        <mxCell id="-WTdRZWmwW-Z1wG2WvBM-64" value="Execution Path" style="rounded=0;whiteSpace=wrap;html=1;" vertex="1" parent="1">
          <mxGeometry x="510" y="180" width="120" height="50" as="geometry" />
        </mxCell>
        <mxCell id="-WTdRZWmwW-Z1wG2WvBM-71" style="edgeStyle=orthogonalEdgeStyle;rounded=0;orthogonalLoop=1;jettySize=auto;html=1;entryX=1;entryY=0.5;entryDx=0;entryDy=0;dashed=1;exitX=0;exitY=0.5;exitDx=0;exitDy=0;" edge="1" parent="1" source="-WTdRZWmwW-Z1wG2WvBM-70" target="-WTdRZWmwW-Z1wG2WvBM-23">
          <mxGeometry relative="1" as="geometry" />
        </mxCell>
        <mxCell id="-WTdRZWmwW-Z1wG2WvBM-70" value="op-1" style="text;html=1;align=center;verticalAlign=middle;whiteSpace=wrap;rounded=0;fontSize=8;" vertex="1" parent="1">
          <mxGeometry x="730" y="475" width="20" height="30" as="geometry" />
        </mxCell>
        <mxCell id="BLbvSoFg7Nqtmbzif43e-4" style="edgeStyle=orthogonalEdgeStyle;rounded=0;orthogonalLoop=1;jettySize=auto;html=1;entryX=0.25;entryY=0;entryDx=0;entryDy=0;exitX=0.445;exitY=1.004;exitDx=0;exitDy=0;exitPerimeter=0;" edge="1" parent="1" source="BLbvSoFg7Nqtmbzif43e-1" target="-WTdRZWmwW-Z1wG2WvBM-24">
          <mxGeometry relative="1" as="geometry">
            <Array as="points">
              <mxPoint x="360" y="410" />
              <mxPoint x="448" y="410" />
            </Array>
          </mxGeometry>
        </mxCell>
        <mxCell id="BLbvSoFg7Nqtmbzif43e-1" value="&lt;p&gt;&amp;lt;&amp;lt;12&lt;/p&gt;" style="shape=parallelogram;html=1;strokeWidth=1;perimeter=parallelogramPerimeter;whiteSpace=wrap;rounded=1;arcSize=0;size=0.37499999999999994;spacing=2;labelBackgroundColor=none;" vertex="1" parent="1">
          <mxGeometry x="333" y="350" width="60" height="40" as="geometry" />
        </mxCell>
        <mxCell id="BLbvSoFg7Nqtmbzif43e-18" style="edgeStyle=orthogonalEdgeStyle;rounded=0;orthogonalLoop=1;jettySize=auto;html=1;entryX=0;entryY=0.5;entryDx=0;entryDy=0;exitX=0.5;exitY=1;exitDx=0;exitDy=0;" edge="1" parent="1" source="BLbvSoFg7Nqtmbzif43e-6" target="-WTdRZWmwW-Z1wG2WvBM-13">
          <mxGeometry relative="1" as="geometry">
            <Array as="points">
              <mxPoint x="860" y="70" />
              <mxPoint x="860" y="400" />
              <mxPoint x="800" y="400" />
              <mxPoint x="800" y="545" />
            </Array>
          </mxGeometry>
        </mxCell>
        <mxCell id="BLbvSoFg7Nqtmbzif43e-6" value="" style="verticalLabelPosition=middle;verticalAlign=middle;html=1;shape=trapezoid;perimeter=trapezoidPerimeter;whiteSpace=wrap;size=0.23;arcSize=10;flipV=1;labelPosition=center;align=center;rotation=-90;" vertex="1" parent="1">
          <mxGeometry x="763" y="40" width="100" height="60" as="geometry" />
        </mxCell>
        <mxCell id="cjDSWWTYHnR3m_Mfqw-F-1" style="edgeStyle=orthogonalEdgeStyle;rounded=0;orthogonalLoop=1;jettySize=auto;html=1;exitX=1;exitY=0.5;exitDx=0;exitDy=0;entryX=0;entryY=0.5;entryDx=0;entryDy=0;" edge="1" parent="1" source="BLbvSoFg7Nqtmbzif43e-9" target="-WTdRZWmwW-Z1wG2WvBM-12">
          <mxGeometry relative="1" as="geometry">
            <Array as="points">
              <mxPoint x="860" y="70" />
              <mxPoint x="860" y="400" />
              <mxPoint x="800" y="400" />
              <mxPoint x="800" y="635" />
            </Array>
          </mxGeometry>
        </mxCell>
        <mxCell id="BLbvSoFg7Nqtmbzif43e-9" value="MUX" style="text;html=1;align=center;verticalAlign=middle;whiteSpace=wrap;rounded=0;" vertex="1" parent="1">
          <mxGeometry x="783" y="55" width="60" height="30" as="geometry" />
        </mxCell>
        <mxCell id="BLbvSoFg7Nqtmbzif43e-10" value="rs2" style="text;html=1;align=center;verticalAlign=middle;whiteSpace=wrap;rounded=0;fontSize=8;" vertex="1" parent="1">
          <mxGeometry x="252" y="380" width="60" height="30" as="geometry" />
        </mxCell>
        <mxCell id="BLbvSoFg7Nqtmbzif43e-11" value="rs2" style="text;html=1;align=center;verticalAlign=middle;whiteSpace=wrap;rounded=0;fontSize=8;" vertex="1" parent="1">
          <mxGeometry x="233" y="75" width="60" height="30" as="geometry" />
        </mxCell>
        <mxCell id="BLbvSoFg7Nqtmbzif43e-12" value="rs2" style="text;html=1;align=center;verticalAlign=middle;whiteSpace=wrap;rounded=0;fontSize=8;" vertex="1" parent="1">
          <mxGeometry x="233" y="25" width="60" height="30" as="geometry" />
        </mxCell>
        <mxCell id="BLbvSoFg7Nqtmbzif43e-14" style="edgeStyle=orthogonalEdgeStyle;rounded=0;orthogonalLoop=1;jettySize=auto;html=1;entryX=0.75;entryY=0;entryDx=0;entryDy=0;" edge="1" parent="1" source="BLbvSoFg7Nqtmbzif43e-13" target="BLbvSoFg7Nqtmbzif43e-6">
          <mxGeometry relative="1" as="geometry" />
        </mxCell>
        <mxCell id="BLbvSoFg7Nqtmbzif43e-13" value="&amp;amp;" style="whiteSpace=wrap;html=1;aspect=fixed;" vertex="1" parent="1">
          <mxGeometry x="333" y="20" width="50" height="50" as="geometry" />
        </mxCell>
        <mxCell id="BLbvSoFg7Nqtmbzif43e-15" value="0xFF" style="text;html=1;align=center;verticalAlign=middle;whiteSpace=wrap;rounded=0;fontSize=8;" vertex="1" parent="1">
          <mxGeometry x="342" y="-10" width="28" height="10" as="geometry" />
        </mxCell>
        <mxCell id="BLbvSoFg7Nqtmbzif43e-16" style="edgeStyle=orthogonalEdgeStyle;rounded=0;orthogonalLoop=1;jettySize=auto;html=1;entryX=0.5;entryY=0;entryDx=0;entryDy=0;dashed=1;exitX=0.5;exitY=1;exitDx=0;exitDy=0;" edge="1" parent="1" target="BLbvSoFg7Nqtmbzif43e-13">
          <mxGeometry relative="1" as="geometry">
            <mxPoint x="391" y="-15" as="targetPoint" />
            <mxPoint x="358" as="sourcePoint" />
          </mxGeometry>
        </mxCell>
        <mxCell id="BLbvSoFg7Nqtmbzif43e-20" value="flags" style="text;html=1;align=center;verticalAlign=middle;whiteSpace=wrap;rounded=0;fontSize=8;" vertex="1" parent="1">
          <mxGeometry x="470" y="139" width="60" height="30" as="geometry" />
        </mxCell>
        <mxCell id="BLbvSoFg7Nqtmbzif43e-21" value="next pc" style="text;html=1;align=center;verticalAlign=middle;whiteSpace=wrap;rounded=0;fontSize=8;fontColor=light-dark(#000000,#FFFFFF);" vertex="1" parent="1">
          <mxGeometry x="247" y="340" width="20" height="30" as="geometry" />
        </mxCell>
        <mxCell id="BLbvSoFg7Nqtmbzif43e-22" value="data in" style="text;html=1;align=center;verticalAlign=middle;whiteSpace=wrap;rounded=0;fontSize=8;" vertex="1" parent="1">
          <mxGeometry x="800" y="380" width="60" height="30" as="geometry" />
        </mxCell>
        <mxCell id="BLbvSoFg7Nqtmbzif43e-23" value="address" style="text;html=1;align=center;verticalAlign=middle;whiteSpace=wrap;rounded=0;fontSize=8;fontColor=light-dark(#000000,#FFFFFF);" vertex="1" parent="1">
          <mxGeometry x="252" y="230" width="25" height="30" as="geometry" />
        </mxCell>
        <mxCell id="BLbvSoFg7Nqtmbzif43e-24" value="instr" style="text;html=1;align=center;verticalAlign=middle;whiteSpace=wrap;rounded=0;fontSize=8;fontColor=light-dark(#000000,#FFFFFF);" vertex="1" parent="1">
          <mxGeometry x="372" y="184" width="40" height="30" as="geometry" />
        </mxCell>
        <mxCell id="BLbvSoFg7Nqtmbzif43e-27" value="4" style="text;html=1;align=center;verticalAlign=middle;whiteSpace=wrap;rounded=0;fontSize=8;" vertex="1" parent="1">
          <mxGeometry x="400" y="430" width="8.2" height="30" as="geometry" />
        </mxCell>
        <mxCell id="BLbvSoFg7Nqtmbzif43e-28" style="edgeStyle=orthogonalEdgeStyle;rounded=0;orthogonalLoop=1;jettySize=auto;html=1;entryX=0.12;entryY=1.009;entryDx=0;entryDy=0;exitX=0.96;exitY=0.516;exitDx=0;exitDy=0;exitPerimeter=0;entryPerimeter=0;" edge="1" parent="1" source="BLbvSoFg7Nqtmbzif43e-27" target="-WTdRZWmwW-Z1wG2WvBM-24">
          <mxGeometry relative="1" as="geometry">
            <mxPoint x="410.2" y="445" as="targetPoint" />
            <Array as="points">
              <mxPoint x="408" y="446" />
              <mxPoint x="432" y="445" />
            </Array>
          </mxGeometry>
        </mxCell>
        <mxCell id="BLbvSoFg7Nqtmbzif43e-29" value="pc" style="text;html=1;align=center;verticalAlign=middle;whiteSpace=wrap;rounded=0;fontSize=8;fontColor=light-dark(#000000,#FFFFFF);" vertex="1" parent="1">
          <mxGeometry x="690" y="280" width="20" height="30" as="geometry" />
        </mxCell>
        <mxCell id="BLbvSoFg7Nqtmbzif43e-30" value="pc" style="text;html=1;align=center;verticalAlign=middle;whiteSpace=wrap;rounded=0;fontSize=8;fontColor=light-dark(#000000,#FFFFFF);" vertex="1" parent="1">
          <mxGeometry x="404" y="135" width="20" height="20" as="geometry" />
        </mxCell>
        <mxCell id="BLbvSoFg7Nqtmbzif43e-31" value="rs1" style="text;html=1;align=center;verticalAlign=middle;whiteSpace=wrap;rounded=0;fontSize=8;" vertex="1" parent="1">
          <mxGeometry x="572" y="270" width="10" height="30" as="geometry" />
        </mxCell>
        <mxCell id="BLbvSoFg7Nqtmbzif43e-32" value="rs2" style="text;html=1;align=center;verticalAlign=middle;whiteSpace=wrap;rounded=0;fontSize=8;" vertex="1" parent="1">
          <mxGeometry x="602" y="270" width="10" height="30" as="geometry" />
        </mxCell>
        <mxCell id="BLbvSoFg7Nqtmbzif43e-33" value="rd" style="text;html=1;align=center;verticalAlign=middle;whiteSpace=wrap;rounded=0;fontSize=8;" vertex="1" parent="1">
          <mxGeometry x="542" y="270" width="10" height="30" as="geometry" />
        </mxCell>
        <mxCell id="BLbvSoFg7Nqtmbzif43e-34" value="imm" style="text;html=1;align=center;verticalAlign=middle;whiteSpace=wrap;rounded=0;fontSize=8;" vertex="1" parent="1">
          <mxGeometry x="500" y="250" width="20" height="20" as="geometry" />
        </mxCell>
        <mxCell id="BLbvSoFg7Nqtmbzif43e-40" value="signals" style="text;html=1;align=center;verticalAlign=middle;whiteSpace=wrap;rounded=0;fontSize=8;" vertex="1" parent="1">
          <mxGeometry x="480" y="214" width="30" height="26" as="geometry" />
        </mxCell>
        <mxCell id="BLbvSoFg7Nqtmbzif43e-41" value="imm" style="text;html=1;align=center;verticalAlign=middle;whiteSpace=wrap;rounded=0;fontSize=8;" vertex="1" parent="1">
          <mxGeometry x="480" y="170" width="30" height="20" as="geometry" />
        </mxCell>
        <mxCell id="BLbvSoFg7Nqtmbzif43e-44" value="rd" style="text;html=1;align=center;verticalAlign=middle;whiteSpace=wrap;rounded=0;fontSize=8;" vertex="1" parent="1">
          <mxGeometry x="712" y="350" width="10" height="30" as="geometry" />
        </mxCell>
        <mxCell id="BLbvSoFg7Nqtmbzif43e-47" style="edgeStyle=orthogonalEdgeStyle;rounded=0;orthogonalLoop=1;jettySize=auto;html=1;entryX=0.75;entryY=0;entryDx=0;entryDy=0;exitX=0.5;exitY=1;exitDx=0;exitDy=0;" edge="1" parent="1" source="BLbvSoFg7Nqtmbzif43e-46" target="-WTdRZWmwW-Z1wG2WvBM-49">
          <mxGeometry relative="1" as="geometry" />
        </mxCell>
        <mxCell id="BLbvSoFg7Nqtmbzif43e-46" value="+4" style="whiteSpace=wrap;html=1;aspect=fixed;" vertex="1" parent="1">
          <mxGeometry x="140" y="420" width="50" height="50" as="geometry" />
        </mxCell>
        <mxCell id="cjDSWWTYHnR3m_Mfqw-F-3" value="" style="shape=waypoint;sketch=0;fillStyle=solid;size=6;pointerEvents=1;points=[];fillColor=none;resizable=0;rotatable=0;perimeter=centerPerimeter;snapToPoint=1;" vertex="1" parent="1">
          <mxGeometry x="560" y="690" width="20" height="20" as="geometry" />
        </mxCell>
        <mxCell id="cjDSWWTYHnR3m_Mfqw-F-4" value="" style="shape=waypoint;sketch=0;fillStyle=solid;size=6;pointerEvents=1;points=[];fillColor=none;resizable=0;rotatable=0;perimeter=centerPerimeter;snapToPoint=1;" vertex="1" parent="1">
          <mxGeometry x="790" y="535" width="20" height="20" as="geometry" />
        </mxCell>
        <mxCell id="cjDSWWTYHnR3m_Mfqw-F-5" value="" style="shape=waypoint;sketch=0;fillStyle=solid;size=6;pointerEvents=1;points=[];fillColor=none;resizable=0;rotatable=0;perimeter=centerPerimeter;snapToPoint=1;" vertex="1" parent="1">
          <mxGeometry x="865" y="690" width="20" height="20" as="geometry" />
        </mxCell>
        <mxCell id="cjDSWWTYHnR3m_Mfqw-F-6" value="" style="shape=waypoint;sketch=0;fillStyle=solid;size=6;pointerEvents=1;points=[];fillColor=none;resizable=0;rotatable=0;perimeter=centerPerimeter;snapToPoint=1;" vertex="1" parent="1">
          <mxGeometry x="622" y="420" width="20" height="20" as="geometry" />
        </mxCell>
        <mxCell id="cjDSWWTYHnR3m_Mfqw-F-8" value="" style="shape=waypoint;sketch=0;fillStyle=solid;size=6;pointerEvents=1;points=[];fillColor=none;resizable=0;rotatable=0;perimeter=centerPerimeter;snapToPoint=1;" vertex="1" parent="1">
          <mxGeometry x="560" y="420" width="20" height="20" as="geometry" />
        </mxCell>
        <mxCell id="cjDSWWTYHnR3m_Mfqw-F-9" value="" style="shape=waypoint;sketch=0;fillStyle=solid;size=6;pointerEvents=1;points=[];fillColor=none;resizable=0;rotatable=0;perimeter=centerPerimeter;snapToPoint=1;" vertex="1" parent="1">
          <mxGeometry x="498" y="420" width="20" height="20" as="geometry" />
        </mxCell>
        <mxCell id="cjDSWWTYHnR3m_Mfqw-F-10" value="" style="shape=waypoint;sketch=0;fillStyle=solid;size=6;pointerEvents=1;points=[];fillColor=none;resizable=0;rotatable=0;perimeter=centerPerimeter;snapToPoint=1;" vertex="1" parent="1">
          <mxGeometry x="430" y="280" width="20" height="20" as="geometry" />
        </mxCell>
        <mxCell id="cjDSWWTYHnR3m_Mfqw-F-11" value="" style="shape=waypoint;sketch=0;fillStyle=solid;size=6;pointerEvents=1;points=[];fillColor=none;resizable=0;rotatable=0;perimeter=centerPerimeter;snapToPoint=1;" vertex="1" parent="1">
          <mxGeometry x="120" y="85" width="20" height="20" as="geometry" />
        </mxCell>
        <mxCell id="cjDSWWTYHnR3m_Mfqw-F-12" value="data out" style="text;html=1;align=center;verticalAlign=middle;whiteSpace=wrap;rounded=0;fontSize=8;" vertex="1" parent="1">
          <mxGeometry x="800" y="690" width="60" height="30" as="geometry" />
        </mxCell>
        <mxCell id="cjDSWWTYHnR3m_Mfqw-F-13" value="ALU out" style="text;html=1;align=center;verticalAlign=middle;whiteSpace=wrap;rounded=0;fontSize=8;" vertex="1" parent="1">
          <mxGeometry x="632" y="690" width="60" height="30" as="geometry" />
        </mxCell>
        <mxCell id="cjDSWWTYHnR3m_Mfqw-F-14" value="next pc" style="text;html=1;align=center;verticalAlign=middle;whiteSpace=wrap;rounded=0;fontSize=8;fontColor=light-dark(#000000,#FFFFFF);" vertex="1" parent="1">
          <mxGeometry x="272" y="505" width="20" height="30" as="geometry" />
        </mxCell>
        <mxCell id="cjDSWWTYHnR3m_Mfqw-F-15" value="pc+4" style="text;html=1;align=center;verticalAlign=middle;whiteSpace=wrap;rounded=0;fontSize=8;fontColor=light-dark(#000000,#FFFFFF);" vertex="1" parent="1">
          <mxGeometry x="170" y="480" width="37" height="30" as="geometry" />
        </mxCell>
        <mxCell id="cjDSWWTYHnR3m_Mfqw-F-20" value="address" style="text;html=1;align=center;verticalAlign=middle;whiteSpace=wrap;rounded=0;fontSize=8;" vertex="1" parent="1">
          <mxGeometry x="885" y="410" width="60" height="30" as="geometry" />
        </mxCell>
        <mxCell id="cjDSWWTYHnR3m_Mfqw-F-22" style="edgeStyle=orthogonalEdgeStyle;rounded=0;orthogonalLoop=1;jettySize=auto;html=1;entryX=0;entryY=0.5;entryDx=0;entryDy=0;dashed=1;exitX=0;exitY=0.5;exitDx=0;exitDy=0;" edge="1" parent="1" source="cjDSWWTYHnR3m_Mfqw-F-21" target="-WTdRZWmwW-Z1wG2WvBM-49">
          <mxGeometry relative="1" as="geometry">
            <mxPoint x="350" y="450" as="sourcePoint" />
          </mxGeometry>
        </mxCell>
        <mxCell id="cjDSWWTYHnR3m_Mfqw-F-21" value="next pc" style="text;html=1;align=center;verticalAlign=middle;whiteSpace=wrap;rounded=0;fontSize=8;" vertex="1" parent="1">
          <mxGeometry x="312" y="430" width="30" height="30" as="geometry" />
        </mxCell>
        <mxCell id="cjDSWWTYHnR3m_Mfqw-F-25" style="edgeStyle=orthogonalEdgeStyle;rounded=0;orthogonalLoop=1;jettySize=auto;html=1;entryX=1;entryY=0.5;entryDx=0;entryDy=0;exitX=1;exitY=0.5;exitDx=0;exitDy=0;dashed=1;" edge="1" parent="1" source="cjDSWWTYHnR3m_Mfqw-F-23" target="-WTdRZWmwW-Z1wG2WvBM-4">
          <mxGeometry relative="1" as="geometry" />
        </mxCell>
        <mxCell id="cjDSWWTYHnR3m_Mfqw-F-23" value="write" style="text;html=1;align=center;verticalAlign=middle;whiteSpace=wrap;rounded=0;fontSize=8;" vertex="1" parent="1">
          <mxGeometry x="668" y="635" width="22" height="30" as="geometry" />
        </mxCell>
        <mxCell id="cjDSWWTYHnR3m_Mfqw-F-27" value="" style="endArrow=none;dashed=1;html=1;rounded=0;" edge="1" parent="1">
          <mxGeometry width="50" height="50" relative="1" as="geometry">
            <mxPoint x="110" y="510" as="sourcePoint" />
            <mxPoint x="110" y="120" as="targetPoint" />
          </mxGeometry>
        </mxCell>
        <mxCell id="cjDSWWTYHnR3m_Mfqw-F-28" value="" style="endArrow=none;dashed=1;html=1;rounded=0;" edge="1" parent="1">
          <mxGeometry width="50" height="50" relative="1" as="geometry">
            <mxPoint x="660" y="120" as="sourcePoint" />
            <mxPoint x="110" y="120" as="targetPoint" />
          </mxGeometry>
        </mxCell>
        <mxCell id="cjDSWWTYHnR3m_Mfqw-F-29" value="" style="endArrow=none;dashed=1;html=1;rounded=0;" edge="1" parent="1">
          <mxGeometry width="50" height="50" relative="1" as="geometry">
            <mxPoint x="660" y="250" as="sourcePoint" />
            <mxPoint x="660" y="120" as="targetPoint" />
          </mxGeometry>
        </mxCell>
        <mxCell id="cjDSWWTYHnR3m_Mfqw-F-32" value="" style="endArrow=none;dashed=1;html=1;rounded=0;" edge="1" parent="1">
          <mxGeometry width="50" height="50" relative="1" as="geometry">
            <mxPoint x="660" y="250" as="sourcePoint" />
            <mxPoint x="320" y="250" as="targetPoint" />
          </mxGeometry>
        </mxCell>
        <mxCell id="cjDSWWTYHnR3m_Mfqw-F-33" value="" style="endArrow=none;dashed=1;html=1;rounded=0;" edge="1" parent="1">
          <mxGeometry width="50" height="50" relative="1" as="geometry">
            <mxPoint x="320" y="510" as="sourcePoint" />
            <mxPoint x="110" y="510" as="targetPoint" />
          </mxGeometry>
        </mxCell>
        <mxCell id="cjDSWWTYHnR3m_Mfqw-F-34" value="" style="endArrow=none;dashed=1;html=1;rounded=0;" edge="1" parent="1">
          <mxGeometry width="50" height="50" relative="1" as="geometry">
            <mxPoint x="320" y="510" as="sourcePoint" />
            <mxPoint x="320" y="250" as="targetPoint" />
          </mxGeometry>
        </mxCell>
        <mxCell id="cjDSWWTYHnR3m_Mfqw-F-35" value="Control Unit" style="text;html=1;align=center;verticalAlign=middle;whiteSpace=wrap;rounded=0;" vertex="1" parent="1">
          <mxGeometry x="135" y="125" width="75" height="30" as="geometry" />
        </mxCell>
        <mxCell id="VKqo6mI3dqd2LLKEwQ0z-2" style="edgeStyle=orthogonalEdgeStyle;rounded=0;orthogonalLoop=1;jettySize=auto;html=1;entryX=1;entryY=0.5;entryDx=0;entryDy=0;dashed=1;dashPattern=1 2;" edge="1" parent="1" source="VKqo6mI3dqd2LLKEwQ0z-1" target="-WTdRZWmwW-Z1wG2WvBM-51">
          <mxGeometry relative="1" as="geometry" />
        </mxCell>
        <mxCell id="VKqo6mI3dqd2LLKEwQ0z-1" value="latch pc" style="text;html=1;align=center;verticalAlign=middle;whiteSpace=wrap;rounded=0;fontSize=8;fontColor=light-dark(#000000,#FFFFFF);" vertex="1" parent="1">
          <mxGeometry x="292" y="280" width="20" height="30" as="geometry" />
        </mxCell>
        <mxCell id="VKqo6mI3dqd2LLKEwQ0z-4" style="edgeStyle=orthogonalEdgeStyle;rounded=0;orthogonalLoop=1;jettySize=auto;html=1;entryX=1;entryY=0.25;entryDx=0;entryDy=0;dashed=1;dashPattern=1 2;" edge="1" parent="1" source="VKqo6mI3dqd2LLKEwQ0z-3" target="-WTdRZWmwW-Z1wG2WvBM-21">
          <mxGeometry relative="1" as="geometry" />
        </mxCell>
        <mxCell id="VKqo6mI3dqd2LLKEwQ0z-3" value="latch&lt;div&gt;regs&lt;/div&gt;" style="text;html=1;align=center;verticalAlign=middle;whiteSpace=wrap;rounded=0;fontSize=8;" vertex="1" parent="1">
          <mxGeometry x="668" y="340" width="22" height="30" as="geometry" />
        </mxCell>
      </root>
    </mxGraphModel>
  </diagram>
</mxfile>
